# xmcd
#
# Track frame offsets:
#	150
#	12140
#	30807
#	46837
#	62710
#	84390
#	97695
#	115117
#	129037
#	142647
#	161032
#
# Disc length: 2495 seconds
#
# Revision: 1
# Processed by: cddbd v1.5.1PL0 Copyright (c) Steve Scherf et al.
# Submitted via: audiograbber 1.83.01
#
DISCID=6b09bd0b
DTITLE=Dean Miller - Just Me - Advance CD
DYEAR=2002
DGENRE=Country
TTITLE0=Love Is A Game
TTITLE1=Between Me And Your Love
TTITLE2=That's Just Me I Guess
TTITLE3=Just The Way You Never Used To Be
TTITLE4=This Is Not A Love Song
TTITLE5=How Long 'Til You Love Me Now?
TTITLE6=Praying For Rain
TTITLE7=Eighth Wonder Of The World
TTITLE8=I'm Gonna Love You Anyway
TTITLE9=My Heart Is In Your Hands
TTITLE10=Carry My Kisses
EXTD=
EXTT0=
EXTT1=
EXTT2=
EXTT3=
EXTT4=
EXTT5=
EXTT6=
EXTT7=
EXTT8=
EXTT9=
EXTT10=
PLAYORDER=
